<mxfile host="Electron" agent="Mozilla/5.0 (Windows NT 10.0; Win64; x64) AppleWebKit/537.36 (KHTML, like Gecko) draw.io/26.1.1 Chrome/132.0.6834.210 Electron/34.3.3 Safari/537.36" version="26.1.1">
  <diagram name="Overview" id="oSXIrwIm7jHdlcMQvLCm">
    <mxGraphModel dx="1036" dy="606" grid="1" gridSize="10" guides="1" tooltips="1" connect="1" arrows="1" fold="1" page="1" pageScale="1" pageWidth="827" pageHeight="1169" math="0" shadow="0">
      <root>
        <mxCell id="0" />
        <mxCell id="1" parent="0" />
        <mxCell id="--339TWbrHD5hlLo9C6_-1" value="" style="rounded=1;whiteSpace=wrap;html=1;" vertex="1" parent="1">
          <mxGeometry x="90" y="60" width="600" height="470" as="geometry" />
        </mxCell>
        <mxCell id="--339TWbrHD5hlLo9C6_-2" value="" style="ellipse;whiteSpace=wrap;html=1;aspect=fixed;" vertex="1" parent="1">
          <mxGeometry x="150" y="100" width="30" height="30" as="geometry" />
        </mxCell>
        <mxCell id="--339TWbrHD5hlLo9C6_-3" value="&lt;font style=&quot;font-size: 14px;&quot;&gt;Running&lt;/font&gt;" style="text;html=1;align=left;verticalAlign=middle;whiteSpace=wrap;rounded=0;" vertex="1" parent="1">
          <mxGeometry x="190" y="100" width="60" height="30" as="geometry" />
        </mxCell>
        <mxCell id="--339TWbrHD5hlLo9C6_-4" value="" style="ellipse;whiteSpace=wrap;html=1;aspect=fixed;" vertex="1" parent="1">
          <mxGeometry x="150" y="141" width="30" height="30" as="geometry" />
        </mxCell>
        <mxCell id="--339TWbrHD5hlLo9C6_-5" value="&lt;font style=&quot;font-size: 14px;&quot;&gt;WiFi&lt;/font&gt;" style="text;html=1;align=left;verticalAlign=middle;whiteSpace=wrap;rounded=0;" vertex="1" parent="1">
          <mxGeometry x="190" y="141" width="60" height="30" as="geometry" />
        </mxCell>
        <mxCell id="--339TWbrHD5hlLo9C6_-6" value="" style="whiteSpace=wrap;html=1;aspect=fixed;" vertex="1" parent="1">
          <mxGeometry x="600" y="100" width="30" height="30" as="geometry" />
        </mxCell>
        <mxCell id="--339TWbrHD5hlLo9C6_-7" value="&lt;font style=&quot;font-size: 14px;&quot;&gt;System WakeUp&lt;/font&gt;" style="text;html=1;align=right;verticalAlign=middle;whiteSpace=wrap;rounded=0;" vertex="1" parent="1">
          <mxGeometry x="530" y="100" width="60" height="30" as="geometry" />
        </mxCell>
        <mxCell id="--339TWbrHD5hlLo9C6_-8" value="" style="whiteSpace=wrap;html=1;aspect=fixed;" vertex="1" parent="1">
          <mxGeometry x="610" y="350" width="30" height="30" as="geometry" />
        </mxCell>
        <mxCell id="--339TWbrHD5hlLo9C6_-9" value="&lt;font style=&quot;font-size: 14px;&quot;&gt;System Reset&lt;/font&gt;" style="text;html=1;align=right;verticalAlign=middle;whiteSpace=wrap;rounded=0;" vertex="1" parent="1">
          <mxGeometry x="510" y="350" width="90" height="30" as="geometry" />
        </mxCell>
        <mxCell id="--339TWbrHD5hlLo9C6_-10" value="" style="endArrow=none;html=1;rounded=0;exitX=0.185;exitY=1.004;exitDx=0;exitDy=0;exitPerimeter=0;" edge="1" parent="1" source="--339TWbrHD5hlLo9C6_-1">
          <mxGeometry width="50" height="50" relative="1" as="geometry">
            <mxPoint x="360" y="420" as="sourcePoint" />
            <mxPoint x="201" y="640" as="targetPoint" />
          </mxGeometry>
        </mxCell>
        <mxCell id="--339TWbrHD5hlLo9C6_-11" value="" style="endArrow=none;html=1;rounded=0;" edge="1" parent="1">
          <mxGeometry width="50" height="50" relative="1" as="geometry">
            <mxPoint x="230" y="640" as="sourcePoint" />
            <mxPoint x="200" y="640" as="targetPoint" />
          </mxGeometry>
        </mxCell>
        <mxCell id="--339TWbrHD5hlLo9C6_-12" value="" style="endArrow=none;html=1;rounded=0;exitX=0.234;exitY=1.004;exitDx=0;exitDy=0;exitPerimeter=0;" edge="1" parent="1" source="--339TWbrHD5hlLo9C6_-1">
          <mxGeometry width="50" height="50" relative="1" as="geometry">
            <mxPoint x="240" y="650" as="sourcePoint" />
            <mxPoint x="230" y="640" as="targetPoint" />
          </mxGeometry>
        </mxCell>
        <mxCell id="--339TWbrHD5hlLo9C6_-13" value="" style="endArrow=none;html=1;rounded=0;exitX=0.185;exitY=1.004;exitDx=0;exitDy=0;exitPerimeter=0;" edge="1" parent="1">
          <mxGeometry width="50" height="50" relative="1" as="geometry">
            <mxPoint x="545.6600000000001" y="530" as="sourcePoint" />
            <mxPoint x="545.6600000000001" y="638" as="targetPoint" />
          </mxGeometry>
        </mxCell>
        <mxCell id="--339TWbrHD5hlLo9C6_-14" value="" style="endArrow=none;html=1;rounded=0;" edge="1" parent="1">
          <mxGeometry width="50" height="50" relative="1" as="geometry">
            <mxPoint x="574.6600000000001" y="638" as="sourcePoint" />
            <mxPoint x="544.6600000000001" y="638" as="targetPoint" />
          </mxGeometry>
        </mxCell>
        <mxCell id="--339TWbrHD5hlLo9C6_-15" value="" style="endArrow=none;html=1;rounded=0;exitX=0.234;exitY=1.004;exitDx=0;exitDy=0;exitPerimeter=0;" edge="1" parent="1">
          <mxGeometry width="50" height="50" relative="1" as="geometry">
            <mxPoint x="574.6600000000001" y="530" as="sourcePoint" />
            <mxPoint x="574.6600000000001" y="638" as="targetPoint" />
          </mxGeometry>
        </mxCell>
        <mxCell id="--339TWbrHD5hlLo9C6_-18" value="&lt;font style=&quot;font-size: 14px;&quot;&gt;Line 1&lt;/font&gt;" style="text;html=1;align=center;verticalAlign=middle;whiteSpace=wrap;rounded=0;" vertex="1" parent="1">
          <mxGeometry x="190" y="470" width="45" height="30" as="geometry" />
        </mxCell>
        <mxCell id="--339TWbrHD5hlLo9C6_-19" value="&lt;font style=&quot;font-size: 14px;&quot;&gt;Line 2&lt;/font&gt;" style="text;html=1;align=center;verticalAlign=middle;whiteSpace=wrap;rounded=0;" vertex="1" parent="1">
          <mxGeometry x="537.5" y="470" width="45" height="30" as="geometry" />
        </mxCell>
        <mxCell id="--339TWbrHD5hlLo9C6_-20" value="" style="ellipse;whiteSpace=wrap;html=1;aspect=fixed;" vertex="1" parent="1">
          <mxGeometry x="150" y="181" width="30" height="30" as="geometry" />
        </mxCell>
        <mxCell id="--339TWbrHD5hlLo9C6_-21" value="&lt;font style=&quot;font-size: 14px;&quot;&gt;Battery&lt;/font&gt;" style="text;html=1;align=left;verticalAlign=middle;whiteSpace=wrap;rounded=0;" vertex="1" parent="1">
          <mxGeometry x="190" y="181" width="60" height="30" as="geometry" />
        </mxCell>
      </root>
    </mxGraphModel>
  </diagram>
</mxfile>
